<mxfile host="Electron" modified="2023-07-16T13:46:25.863Z" agent="Mozilla/5.0 (Windows NT 10.0; Win64; x64) AppleWebKit/537.36 (KHTML, like Gecko) draw.io/21.3.7 Chrome/112.0.5615.204 Electron/24.5.0 Safari/537.36" etag="GqRKm2ko9eTICwPinp5J" version="21.3.7" type="device" pages="3">
  <diagram name="Page-1" id="ppRENS7T5pjbrHb4Uf8s">
    <mxGraphModel dx="780" dy="544" grid="1" gridSize="10" guides="1" tooltips="1" connect="1" arrows="1" fold="1" page="1" pageScale="1" pageWidth="850" pageHeight="1100" math="0" shadow="0">
      <root>
        <mxCell id="0" />
        <mxCell id="1" parent="0" />
        <mxCell id="PJga2O3bnMjpjO1jojDn-17" value="" style="rounded=0;whiteSpace=wrap;html=1;shadow=1;" parent="1" vertex="1">
          <mxGeometry x="190" y="120" width="470" height="270" as="geometry" />
        </mxCell>
        <mxCell id="PJga2O3bnMjpjO1jojDn-1" value="" style="rounded=0;whiteSpace=wrap;html=1;fillColor=#fff2cc;strokeColor=#d6b656;shadow=1;" parent="1" vertex="1">
          <mxGeometry x="210" y="160" width="170" height="210" as="geometry" />
        </mxCell>
        <mxCell id="PJga2O3bnMjpjO1jojDn-11" style="edgeStyle=orthogonalEdgeStyle;rounded=0;orthogonalLoop=1;jettySize=auto;html=1;entryX=1;entryY=0.5;entryDx=0;entryDy=0;" parent="1" source="PJga2O3bnMjpjO1jojDn-2" target="PJga2O3bnMjpjO1jojDn-7" edge="1">
          <mxGeometry relative="1" as="geometry" />
        </mxCell>
        <mxCell id="PJga2O3bnMjpjO1jojDn-12" style="edgeStyle=orthogonalEdgeStyle;rounded=0;orthogonalLoop=1;jettySize=auto;html=1;entryX=1;entryY=0.5;entryDx=0;entryDy=0;" parent="1" source="PJga2O3bnMjpjO1jojDn-2" target="PJga2O3bnMjpjO1jojDn-8" edge="1">
          <mxGeometry relative="1" as="geometry" />
        </mxCell>
        <mxCell id="PJga2O3bnMjpjO1jojDn-13" style="edgeStyle=orthogonalEdgeStyle;rounded=0;orthogonalLoop=1;jettySize=auto;html=1;entryX=1;entryY=0.5;entryDx=0;entryDy=0;" parent="1" source="PJga2O3bnMjpjO1jojDn-2" target="PJga2O3bnMjpjO1jojDn-9" edge="1">
          <mxGeometry relative="1" as="geometry">
            <mxPoint x="400" y="300" as="targetPoint" />
          </mxGeometry>
        </mxCell>
        <mxCell id="PJga2O3bnMjpjO1jojDn-14" style="edgeStyle=orthogonalEdgeStyle;rounded=0;orthogonalLoop=1;jettySize=auto;html=1;entryX=1;entryY=0.5;entryDx=0;entryDy=0;" parent="1" source="PJga2O3bnMjpjO1jojDn-2" target="PJga2O3bnMjpjO1jojDn-10" edge="1">
          <mxGeometry relative="1" as="geometry" />
        </mxCell>
        <mxCell id="PJga2O3bnMjpjO1jojDn-16" style="edgeStyle=orthogonalEdgeStyle;rounded=0;orthogonalLoop=1;jettySize=auto;html=1;entryX=1;entryY=0.5;entryDx=0;entryDy=0;" parent="1" source="PJga2O3bnMjpjO1jojDn-2" target="PJga2O3bnMjpjO1jojDn-15" edge="1">
          <mxGeometry relative="1" as="geometry" />
        </mxCell>
        <mxCell id="PJga2O3bnMjpjO1jojDn-2" value="" style="rounded=0;whiteSpace=wrap;html=1;fillColor=#fff2cc;strokeColor=#d6b656;shadow=1;" parent="1" vertex="1">
          <mxGeometry x="470" y="200" width="170" height="130" as="geometry" />
        </mxCell>
        <mxCell id="PJga2O3bnMjpjO1jojDn-3" value="Attributes/variables" style="rounded=0;whiteSpace=wrap;html=1;fillColor=#dae8fc;strokeColor=#6c8ebf;shadow=1;" parent="1" vertex="1">
          <mxGeometry x="480" y="210" width="150" height="50" as="geometry" />
        </mxCell>
        <mxCell id="PJga2O3bnMjpjO1jojDn-4" value="Methods/functions" style="rounded=0;whiteSpace=wrap;html=1;fillColor=#dae8fc;strokeColor=#6c8ebf;shadow=1;" parent="1" vertex="1">
          <mxGeometry x="480" y="270" width="150" height="50" as="geometry" />
        </mxCell>
        <mxCell id="PJga2O3bnMjpjO1jojDn-5" value="Class" style="text;html=1;strokeColor=none;fillColor=none;align=center;verticalAlign=middle;whiteSpace=wrap;rounded=0;fontSize=14;" parent="1" vertex="1">
          <mxGeometry x="525" y="170" width="60" height="30" as="geometry" />
        </mxCell>
        <mxCell id="PJga2O3bnMjpjO1jojDn-6" value="Kotlin file" style="text;html=1;strokeColor=none;fillColor=none;align=center;verticalAlign=middle;whiteSpace=wrap;rounded=0;fontSize=14;" parent="1" vertex="1">
          <mxGeometry x="260" y="130" width="60" height="30" as="geometry" />
        </mxCell>
        <mxCell id="PJga2O3bnMjpjO1jojDn-7" value="Object" style="rounded=0;whiteSpace=wrap;html=1;fillColor=#e1d5e7;strokeColor=#9673a6;shadow=1;" parent="1" vertex="1">
          <mxGeometry x="220" y="170" width="150" height="30" as="geometry" />
        </mxCell>
        <mxCell id="PJga2O3bnMjpjO1jojDn-8" value="Object" style="rounded=0;whiteSpace=wrap;html=1;fillColor=#e1d5e7;strokeColor=#9673a6;shadow=1;" parent="1" vertex="1">
          <mxGeometry x="220" y="210" width="150" height="30" as="geometry" />
        </mxCell>
        <mxCell id="PJga2O3bnMjpjO1jojDn-9" value="Object" style="rounded=0;whiteSpace=wrap;html=1;fillColor=#e1d5e7;strokeColor=#9673a6;shadow=1;" parent="1" vertex="1">
          <mxGeometry x="220" y="250" width="150" height="30" as="geometry" />
        </mxCell>
        <mxCell id="PJga2O3bnMjpjO1jojDn-10" value="Object" style="rounded=0;whiteSpace=wrap;html=1;fillColor=#e1d5e7;strokeColor=#9673a6;shadow=1;" parent="1" vertex="1">
          <mxGeometry x="220" y="290" width="150" height="30" as="geometry" />
        </mxCell>
        <mxCell id="PJga2O3bnMjpjO1jojDn-15" value="Object" style="rounded=0;whiteSpace=wrap;html=1;fillColor=#e1d5e7;strokeColor=#9673a6;shadow=1;" parent="1" vertex="1">
          <mxGeometry x="220" y="330" width="150" height="30" as="geometry" />
        </mxCell>
      </root>
    </mxGraphModel>
  </diagram>
  <diagram id="Q7cahO2ihqcgogSl48vU" name="Page-2">
    <mxGraphModel dx="780" dy="544" grid="1" gridSize="10" guides="1" tooltips="1" connect="1" arrows="1" fold="1" page="1" pageScale="1" pageWidth="850" pageHeight="1100" math="0" shadow="0">
      <root>
        <mxCell id="0" />
        <mxCell id="1" parent="0" />
        <mxCell id="8Fwgo1BI5EjXoNfSGZa9-15" value="" style="rounded=0;whiteSpace=wrap;html=1;" parent="1" vertex="1">
          <mxGeometry x="120" y="90" width="480" height="410" as="geometry" />
        </mxCell>
        <mxCell id="8Fwgo1BI5EjXoNfSGZa9-3" value="Clone / Pull" style="edgeStyle=orthogonalEdgeStyle;rounded=0;orthogonalLoop=1;jettySize=auto;html=1;entryX=0.25;entryY=0;entryDx=0;entryDy=0;exitX=0.25;exitY=1;exitDx=0;exitDy=0;fontStyle=1;fillColor=#dae8fc;strokeColor=#6c8ebf;strokeWidth=3;" parent="1" source="8Fwgo1BI5EjXoNfSGZa9-1" target="8Fwgo1BI5EjXoNfSGZa9-2" edge="1">
          <mxGeometry relative="1" as="geometry" />
        </mxCell>
        <mxCell id="8Fwgo1BI5EjXoNfSGZa9-1" value="" style="rounded=0;whiteSpace=wrap;html=1;fillColor=#fff2cc;strokeColor=#d6b656;shadow=1;" parent="1" vertex="1">
          <mxGeometry x="140" y="110" width="440" height="110" as="geometry" />
        </mxCell>
        <mxCell id="8Fwgo1BI5EjXoNfSGZa9-5" value="Push" style="edgeStyle=orthogonalEdgeStyle;rounded=0;orthogonalLoop=1;jettySize=auto;html=1;exitX=0.75;exitY=0;exitDx=0;exitDy=0;entryX=0.75;entryY=1;entryDx=0;entryDy=0;fontStyle=1;fillColor=#dae8fc;strokeColor=#6c8ebf;strokeWidth=3;" parent="1" source="8Fwgo1BI5EjXoNfSGZa9-2" target="8Fwgo1BI5EjXoNfSGZa9-1" edge="1">
          <mxGeometry relative="1" as="geometry" />
        </mxCell>
        <mxCell id="8Fwgo1BI5EjXoNfSGZa9-2" value="" style="rounded=0;whiteSpace=wrap;html=1;fillColor=#e1d5e7;strokeColor=#9673a6;shadow=1;" parent="1" vertex="1">
          <mxGeometry x="140" y="340" width="440" height="130" as="geometry" />
        </mxCell>
        <mxCell id="8Fwgo1BI5EjXoNfSGZa9-9" value="Add" style="edgeStyle=orthogonalEdgeStyle;rounded=0;orthogonalLoop=1;jettySize=auto;html=1;entryX=0;entryY=0.5;entryDx=0;entryDy=0;fontStyle=1" parent="1" source="8Fwgo1BI5EjXoNfSGZa9-6" target="8Fwgo1BI5EjXoNfSGZa9-7" edge="1">
          <mxGeometry relative="1" as="geometry" />
        </mxCell>
        <mxCell id="8Fwgo1BI5EjXoNfSGZa9-6" value="" style="rounded=0;whiteSpace=wrap;html=1;fillColor=#e51400;strokeColor=#B20000;fontColor=#ffffff;shadow=1;" parent="1" vertex="1">
          <mxGeometry x="160" y="360" width="80" height="50" as="geometry" />
        </mxCell>
        <mxCell id="8Fwgo1BI5EjXoNfSGZa9-10" value="Commit" style="edgeStyle=orthogonalEdgeStyle;rounded=0;orthogonalLoop=1;jettySize=auto;html=1;fontStyle=1" parent="1" source="8Fwgo1BI5EjXoNfSGZa9-7" target="8Fwgo1BI5EjXoNfSGZa9-8" edge="1">
          <mxGeometry relative="1" as="geometry" />
        </mxCell>
        <mxCell id="8Fwgo1BI5EjXoNfSGZa9-7" value="" style="rounded=0;whiteSpace=wrap;html=1;fillColor=#60a917;fontColor=#ffffff;strokeColor=#2D7600;shadow=1;" parent="1" vertex="1">
          <mxGeometry x="320" y="360" width="80" height="50" as="geometry" />
        </mxCell>
        <mxCell id="8Fwgo1BI5EjXoNfSGZa9-8" value="" style="rounded=0;whiteSpace=wrap;html=1;fillColor=#1ba1e2;fontColor=#ffffff;strokeColor=#006EAF;shadow=1;" parent="1" vertex="1">
          <mxGeometry x="480" y="360" width="80" height="50" as="geometry" />
        </mxCell>
        <mxCell id="8Fwgo1BI5EjXoNfSGZa9-11" value="Untracked&lt;br&gt;Files" style="text;html=1;strokeColor=none;fillColor=none;align=center;verticalAlign=middle;whiteSpace=wrap;rounded=0;" parent="1" vertex="1">
          <mxGeometry x="170" y="420" width="60" height="30" as="geometry" />
        </mxCell>
        <mxCell id="8Fwgo1BI5EjXoNfSGZa9-12" value="Stageded&lt;br&gt;Files" style="text;html=1;strokeColor=none;fillColor=none;align=center;verticalAlign=middle;whiteSpace=wrap;rounded=0;" parent="1" vertex="1">
          <mxGeometry x="330" y="420" width="60" height="30" as="geometry" />
        </mxCell>
        <mxCell id="8Fwgo1BI5EjXoNfSGZa9-13" value="Snapshot:&lt;br&gt;Tracked files" style="text;html=1;strokeColor=none;fillColor=none;align=center;verticalAlign=middle;whiteSpace=wrap;rounded=0;" parent="1" vertex="1">
          <mxGeometry x="490" y="420" width="70" height="30" as="geometry" />
        </mxCell>
        <mxCell id="8Fwgo1BI5EjXoNfSGZa9-14" value="Github Repository" style="text;html=1;strokeColor=none;fillColor=none;align=center;verticalAlign=middle;whiteSpace=wrap;rounded=0;" parent="1" vertex="1">
          <mxGeometry x="330" y="150" width="60" height="30" as="geometry" />
        </mxCell>
      </root>
    </mxGraphModel>
  </diagram>
  <diagram id="oJ0UXwr9L7B0WA9c30-h" name="Page-3">
    <mxGraphModel dx="780" dy="544" grid="1" gridSize="10" guides="1" tooltips="1" connect="1" arrows="1" fold="1" page="1" pageScale="1" pageWidth="850" pageHeight="1100" math="0" shadow="0">
      <root>
        <mxCell id="0" />
        <mxCell id="1" parent="0" />
        <mxCell id="MAfkUvhUl6VxET2MSILV-28" value="" style="rounded=0;whiteSpace=wrap;html=1;" parent="1" vertex="1">
          <mxGeometry x="150" y="100" width="1000" height="530" as="geometry" />
        </mxCell>
        <mxCell id="MAfkUvhUl6VxET2MSILV-4" style="edgeStyle=orthogonalEdgeStyle;rounded=0;orthogonalLoop=1;jettySize=auto;html=1;entryX=0;entryY=0.5;entryDx=0;entryDy=0;strokeWidth=3;fillColor=#fff2cc;strokeColor=#d6b656;" parent="1" source="MAfkUvhUl6VxET2MSILV-1" target="MAfkUvhUl6VxET2MSILV-2" edge="1">
          <mxGeometry relative="1" as="geometry" />
        </mxCell>
        <mxCell id="MAfkUvhUl6VxET2MSILV-1" value="&lt;b&gt;&lt;font style=&quot;font-size: 15px;&quot;&gt;Commit 1&lt;/font&gt;&lt;/b&gt;" style="rounded=0;whiteSpace=wrap;html=1;fillColor=#fff2cc;strokeColor=#d6b656;shadow=1;" parent="1" vertex="1">
          <mxGeometry x="180" y="230" width="100" height="50" as="geometry" />
        </mxCell>
        <mxCell id="MAfkUvhUl6VxET2MSILV-5" style="edgeStyle=orthogonalEdgeStyle;rounded=0;orthogonalLoop=1;jettySize=auto;html=1;entryX=0;entryY=0.5;entryDx=0;entryDy=0;strokeWidth=3;fillColor=#fff2cc;strokeColor=#d6b656;" parent="1" source="MAfkUvhUl6VxET2MSILV-2" target="MAfkUvhUl6VxET2MSILV-3" edge="1">
          <mxGeometry relative="1" as="geometry" />
        </mxCell>
        <mxCell id="MAfkUvhUl6VxET2MSILV-9" style="edgeStyle=orthogonalEdgeStyle;rounded=0;orthogonalLoop=1;jettySize=auto;html=1;entryX=0;entryY=0.5;entryDx=0;entryDy=0;strokeWidth=3;fillColor=#e1d5e7;strokeColor=#9673a6;" parent="1" source="MAfkUvhUl6VxET2MSILV-2" target="MAfkUvhUl6VxET2MSILV-8" edge="1">
          <mxGeometry relative="1" as="geometry">
            <Array as="points">
              <mxPoint x="390" y="365" />
            </Array>
          </mxGeometry>
        </mxCell>
        <mxCell id="MAfkUvhUl6VxET2MSILV-2" value="&lt;b&gt;&lt;font style=&quot;font-size: 15px;&quot;&gt;Commit 2&lt;/font&gt;&lt;/b&gt;" style="rounded=0;whiteSpace=wrap;html=1;shadow=1;fillColor=#fff2cc;strokeColor=#d6b656;" parent="1" vertex="1">
          <mxGeometry x="320" y="230" width="100" height="50" as="geometry" />
        </mxCell>
        <mxCell id="MAfkUvhUl6VxET2MSILV-7" style="edgeStyle=orthogonalEdgeStyle;rounded=0;orthogonalLoop=1;jettySize=auto;html=1;strokeWidth=3;fillColor=#fff2cc;strokeColor=#d6b656;" parent="1" source="MAfkUvhUl6VxET2MSILV-3" target="MAfkUvhUl6VxET2MSILV-6" edge="1">
          <mxGeometry relative="1" as="geometry" />
        </mxCell>
        <mxCell id="MAfkUvhUl6VxET2MSILV-19" style="edgeStyle=orthogonalEdgeStyle;rounded=0;orthogonalLoop=1;jettySize=auto;html=1;entryX=0;entryY=0.5;entryDx=0;entryDy=0;fillColor=#d5e8d4;strokeColor=#82b366;strokeWidth=3;" parent="1" source="MAfkUvhUl6VxET2MSILV-3" target="MAfkUvhUl6VxET2MSILV-17" edge="1">
          <mxGeometry relative="1" as="geometry" />
        </mxCell>
        <mxCell id="MAfkUvhUl6VxET2MSILV-3" value="&lt;b&gt;&lt;font style=&quot;font-size: 15px;&quot;&gt;Commit 3&lt;/font&gt;&lt;/b&gt;" style="rounded=0;whiteSpace=wrap;html=1;shadow=1;fillColor=#fff2cc;strokeColor=#d6b656;" parent="1" vertex="1">
          <mxGeometry x="460" y="230" width="100" height="50" as="geometry" />
        </mxCell>
        <mxCell id="MAfkUvhUl6VxET2MSILV-13" style="edgeStyle=orthogonalEdgeStyle;rounded=0;orthogonalLoop=1;jettySize=auto;html=1;entryX=0;entryY=0.5;entryDx=0;entryDy=0;strokeWidth=3;fillColor=#fff2cc;strokeColor=#d6b656;" parent="1" source="MAfkUvhUl6VxET2MSILV-6" target="MAfkUvhUl6VxET2MSILV-12" edge="1">
          <mxGeometry relative="1" as="geometry" />
        </mxCell>
        <mxCell id="MAfkUvhUl6VxET2MSILV-6" value="&lt;b&gt;&lt;font style=&quot;font-size: 15px;&quot;&gt;Commit 4&lt;/font&gt;&lt;/b&gt;" style="rounded=0;whiteSpace=wrap;html=1;shadow=1;fillColor=#fff2cc;strokeColor=#d6b656;" parent="1" vertex="1">
          <mxGeometry x="600" y="230" width="100" height="50" as="geometry" />
        </mxCell>
        <mxCell id="MAfkUvhUl6VxET2MSILV-11" style="edgeStyle=orthogonalEdgeStyle;rounded=0;orthogonalLoop=1;jettySize=auto;html=1;entryX=0;entryY=0.5;entryDx=0;entryDy=0;strokeWidth=3;fillColor=#e1d5e7;strokeColor=#9673a6;" parent="1" source="MAfkUvhUl6VxET2MSILV-8" target="MAfkUvhUl6VxET2MSILV-10" edge="1">
          <mxGeometry relative="1" as="geometry" />
        </mxCell>
        <mxCell id="MAfkUvhUl6VxET2MSILV-8" value="&lt;b&gt;&lt;font style=&quot;font-size: 15px;&quot;&gt;Commit 1&lt;/font&gt;&lt;/b&gt;" style="rounded=0;whiteSpace=wrap;html=1;shadow=1;fillColor=#e1d5e7;strokeColor=#9673a6;" parent="1" vertex="1">
          <mxGeometry x="410" y="340" width="100" height="50" as="geometry" />
        </mxCell>
        <mxCell id="MAfkUvhUl6VxET2MSILV-14" style="edgeStyle=orthogonalEdgeStyle;rounded=0;orthogonalLoop=1;jettySize=auto;html=1;entryX=0;entryY=0.5;entryDx=0;entryDy=0;strokeWidth=3;fillColor=#e1d5e7;strokeColor=#9673a6;" parent="1" source="MAfkUvhUl6VxET2MSILV-10" target="MAfkUvhUl6VxET2MSILV-15" edge="1">
          <mxGeometry relative="1" as="geometry" />
        </mxCell>
        <mxCell id="MAfkUvhUl6VxET2MSILV-10" value="&lt;b&gt;&lt;font style=&quot;font-size: 15px;&quot;&gt;Commit 2&lt;/font&gt;&lt;/b&gt;" style="rounded=0;whiteSpace=wrap;html=1;shadow=1;fillColor=#e1d5e7;strokeColor=#9673a6;" parent="1" vertex="1">
          <mxGeometry x="550" y="340" width="100" height="50" as="geometry" />
        </mxCell>
        <mxCell id="MAfkUvhUl6VxET2MSILV-22" style="edgeStyle=orthogonalEdgeStyle;rounded=0;orthogonalLoop=1;jettySize=auto;html=1;entryX=0;entryY=0.5;entryDx=0;entryDy=0;strokeWidth=3;fillColor=#fff2cc;strokeColor=#d6b656;" parent="1" source="MAfkUvhUl6VxET2MSILV-12" target="MAfkUvhUl6VxET2MSILV-21" edge="1">
          <mxGeometry relative="1" as="geometry" />
        </mxCell>
        <mxCell id="MAfkUvhUl6VxET2MSILV-12" value="&lt;b&gt;&lt;font style=&quot;font-size: 15px;&quot;&gt;Merge&lt;/font&gt;&lt;/b&gt;" style="rounded=0;whiteSpace=wrap;html=1;shadow=1;fillColor=#fff2cc;strokeColor=#d6b656;" parent="1" vertex="1">
          <mxGeometry x="740" y="230" width="100" height="50" as="geometry" />
        </mxCell>
        <mxCell id="MAfkUvhUl6VxET2MSILV-16" style="edgeStyle=orthogonalEdgeStyle;rounded=0;orthogonalLoop=1;jettySize=auto;html=1;strokeWidth=3;fillColor=#e1d5e7;strokeColor=#9673a6;" parent="1" source="MAfkUvhUl6VxET2MSILV-15" edge="1">
          <mxGeometry relative="1" as="geometry">
            <mxPoint x="810" y="280" as="targetPoint" />
            <Array as="points">
              <mxPoint x="810" y="365" />
              <mxPoint x="810" y="284" />
            </Array>
          </mxGeometry>
        </mxCell>
        <mxCell id="MAfkUvhUl6VxET2MSILV-15" value="&lt;b style=&quot;border-color: var(--border-color);&quot;&gt;&lt;font style=&quot;border-color: var(--border-color); font-size: 15px;&quot;&gt;Commit 3&lt;/font&gt;&lt;/b&gt;" style="rounded=0;whiteSpace=wrap;html=1;shadow=1;fillColor=#e1d5e7;strokeColor=#9673a6;" parent="1" vertex="1">
          <mxGeometry x="690" y="340" width="100" height="50" as="geometry" />
        </mxCell>
        <mxCell id="MAfkUvhUl6VxET2MSILV-20" style="edgeStyle=orthogonalEdgeStyle;rounded=0;orthogonalLoop=1;jettySize=auto;html=1;entryX=0;entryY=0.5;entryDx=0;entryDy=0;fillColor=#d5e8d4;strokeColor=#82b366;strokeWidth=3;" parent="1" source="MAfkUvhUl6VxET2MSILV-17" target="MAfkUvhUl6VxET2MSILV-18" edge="1">
          <mxGeometry relative="1" as="geometry" />
        </mxCell>
        <mxCell id="MAfkUvhUl6VxET2MSILV-17" value="&lt;b style=&quot;border-color: var(--border-color);&quot;&gt;&lt;font style=&quot;border-color: var(--border-color); font-size: 15px;&quot;&gt;Commit 1&lt;/font&gt;&lt;/b&gt;" style="rounded=0;whiteSpace=wrap;html=1;shadow=1;fillColor=#d5e8d4;strokeColor=#82b366;" parent="1" vertex="1">
          <mxGeometry x="540" y="120" width="100" height="50" as="geometry" />
        </mxCell>
        <mxCell id="MAfkUvhUl6VxET2MSILV-23" style="edgeStyle=orthogonalEdgeStyle;rounded=0;orthogonalLoop=1;jettySize=auto;html=1;entryX=0.5;entryY=0;entryDx=0;entryDy=0;fillColor=#d5e8d4;strokeColor=#82b366;strokeWidth=3;exitX=1;exitY=0.5;exitDx=0;exitDy=0;" parent="1" source="MAfkUvhUl6VxET2MSILV-24" target="MAfkUvhUl6VxET2MSILV-21" edge="1">
          <mxGeometry relative="1" as="geometry" />
        </mxCell>
        <mxCell id="MAfkUvhUl6VxET2MSILV-18" value="&lt;b style=&quot;border-color: var(--border-color);&quot;&gt;&lt;font style=&quot;border-color: var(--border-color); font-size: 15px;&quot;&gt;Commit 2&lt;/font&gt;&lt;/b&gt;" style="rounded=0;whiteSpace=wrap;html=1;shadow=1;fillColor=#d5e8d4;strokeColor=#82b366;" parent="1" vertex="1">
          <mxGeometry x="680" y="120" width="100" height="50" as="geometry" />
        </mxCell>
        <mxCell id="MAfkUvhUl6VxET2MSILV-27" style="edgeStyle=orthogonalEdgeStyle;rounded=0;orthogonalLoop=1;jettySize=auto;html=1;entryX=0;entryY=0.5;entryDx=0;entryDy=0;strokeWidth=3;fillColor=#fff2cc;strokeColor=#d6b656;" parent="1" source="MAfkUvhUl6VxET2MSILV-21" target="MAfkUvhUl6VxET2MSILV-26" edge="1">
          <mxGeometry relative="1" as="geometry" />
        </mxCell>
        <mxCell id="MAfkUvhUl6VxET2MSILV-21" value="&lt;b&gt;&lt;font style=&quot;font-size: 15px;&quot;&gt;Merge&lt;/font&gt;&lt;/b&gt;" style="rounded=0;whiteSpace=wrap;html=1;shadow=1;fillColor=#fff2cc;strokeColor=#d6b656;" parent="1" vertex="1">
          <mxGeometry x="880" y="230" width="100" height="50" as="geometry" />
        </mxCell>
        <mxCell id="MAfkUvhUl6VxET2MSILV-25" value="" style="edgeStyle=orthogonalEdgeStyle;rounded=0;orthogonalLoop=1;jettySize=auto;html=1;entryX=0;entryY=0.5;entryDx=0;entryDy=0;fillColor=#d5e8d4;strokeColor=#82b366;strokeWidth=3;" parent="1" source="MAfkUvhUl6VxET2MSILV-18" target="MAfkUvhUl6VxET2MSILV-24" edge="1">
          <mxGeometry relative="1" as="geometry">
            <mxPoint x="780" y="145" as="sourcePoint" />
            <mxPoint x="930" y="230" as="targetPoint" />
          </mxGeometry>
        </mxCell>
        <mxCell id="MAfkUvhUl6VxET2MSILV-24" value="&lt;b style=&quot;border-color: var(--border-color);&quot;&gt;&lt;font style=&quot;border-color: var(--border-color); font-size: 15px;&quot;&gt;Commit 3&lt;/font&gt;&lt;/b&gt;" style="rounded=0;whiteSpace=wrap;html=1;shadow=1;fillColor=#d5e8d4;strokeColor=#82b366;" parent="1" vertex="1">
          <mxGeometry x="810" y="120" width="100" height="50" as="geometry" />
        </mxCell>
        <mxCell id="MAfkUvhUl6VxET2MSILV-26" value="&lt;b&gt;&lt;font style=&quot;font-size: 15px;&quot;&gt;Commit x&lt;/font&gt;&lt;/b&gt;" style="rounded=0;whiteSpace=wrap;html=1;shadow=1;fillColor=#fff2cc;strokeColor=#d6b656;" parent="1" vertex="1">
          <mxGeometry x="1020" y="230" width="100" height="50" as="geometry" />
        </mxCell>
        <mxCell id="MAfkUvhUl6VxET2MSILV-29" value="" style="rounded=0;whiteSpace=wrap;html=1;fillColor=#fff2cc;strokeColor=#d6b656;shadow=1;" parent="1" vertex="1">
          <mxGeometry x="590" y="440" width="100" height="50" as="geometry" />
        </mxCell>
        <mxCell id="MAfkUvhUl6VxET2MSILV-30" value="" style="rounded=0;whiteSpace=wrap;html=1;shadow=1;fillColor=#d5e8d4;strokeColor=#82b366;" parent="1" vertex="1">
          <mxGeometry x="590" y="500" width="100" height="50" as="geometry" />
        </mxCell>
        <mxCell id="MAfkUvhUl6VxET2MSILV-31" value="" style="rounded=0;whiteSpace=wrap;html=1;shadow=1;fillColor=#e1d5e7;strokeColor=#9673a6;" parent="1" vertex="1">
          <mxGeometry x="590" y="560" width="100" height="50" as="geometry" />
        </mxCell>
        <mxCell id="MAfkUvhUl6VxET2MSILV-32" value="&lt;font style=&quot;font-size: 15px;&quot;&gt;&lt;b&gt;Main Branch&lt;/b&gt;&lt;/font&gt;" style="text;html=1;strokeColor=none;fillColor=none;align=center;verticalAlign=middle;whiteSpace=wrap;rounded=0;" parent="1" vertex="1">
          <mxGeometry x="690" y="450" width="110" height="30" as="geometry" />
        </mxCell>
        <mxCell id="MAfkUvhUl6VxET2MSILV-33" value="&lt;font style=&quot;font-size: 15px;&quot;&gt;&lt;b&gt;Branch 2&lt;/b&gt;&lt;/font&gt;" style="text;html=1;strokeColor=none;fillColor=none;align=center;verticalAlign=middle;whiteSpace=wrap;rounded=0;" parent="1" vertex="1">
          <mxGeometry x="690" y="510" width="110" height="30" as="geometry" />
        </mxCell>
        <mxCell id="MAfkUvhUl6VxET2MSILV-34" value="&lt;font style=&quot;font-size: 15px;&quot;&gt;&lt;b&gt;Branch 3&lt;/b&gt;&lt;/font&gt;" style="text;html=1;strokeColor=none;fillColor=none;align=center;verticalAlign=middle;whiteSpace=wrap;rounded=0;" parent="1" vertex="1">
          <mxGeometry x="690" y="570" width="110" height="30" as="geometry" />
        </mxCell>
      </root>
    </mxGraphModel>
  </diagram>
</mxfile>
